<?xml version="1.0" standalone="no"?>
<!DOCTYPE svg PUBLIC "-//W3C//DTD SVG 20010904//EN"
 "http://www.w3.org/TR/2001/REC-SVG-20010904/DTD/svg10.dtd">
<svg version="1.0" xmlns="http://www.w3.org/2000/svg"
 width="2076.000000pt" height="2076.000000pt" viewBox="0 0 2076.000000 2076.000000"
 preserveAspectRatio="xMidYMid meet">

<g transform="translate(0.000000,2076.000000) scale(0.100000,-0.100000)"
fill="#ffffff" stroke="none">
<path d="M16350 14478 l-2665 -711 -1306 -1625 -1305 -1626 789 -1973 c434
-1086 793 -1973 798 -1971 8 3 6359 8607 6359 8615 0 1 -1 3 -2 2 -2 0 -1202
-320 -2668 -711z"/>
<path d="M2012 14892 c9 -23 6664 -8379 6669 -8373 3 3 317 877 699 1941 381
1064 703 1963 716 1997 l23 62 -1365 1578 -1364 1577 -2668 608 c-1467 334
-2678 610 -2690 613 -13 3 -22 2 -20 -3z"/>
</g>
</svg>
